<?xml version="1.0" encoding="UTF-8" standalone="no"?>
<svg xmlns="http://www.w3.org/2000/svg" width="1219" height="390" viewBox="0 0 1219 390" role="img" aria-labelledby="title desc">
  <title id="title">PODRUGI logo</title>
  <desc id="desc">Editable vector logo with black lettering and a pink heart accent on a transparent background.</desc>
  <g fill-rule="evenodd" clip-rule="evenodd">
    <path d="M 329.00 133.00 L 321.00 129.00 L 306.00 125.00 L 289.00 125.00 L 275.00 128.00 L 259.00 134.00 L 234.00 149.00 L 218.00 162.00 L 202.00 178.00 L 188.00 196.00 L 180.00 209.00 L 172.00 225.00 L 167.00 239.00 L 163.00 257.00 L 163.00 280.00 L 168.00 299.00 L 174.00 311.00 L 180.00 319.00 L 192.00 330.00 L 200.00 335.00 L 209.00 339.00 L 228.00 344.00 L 250.00 345.00 L 275.00 341.00 L 297.00 333.00 L 314.00 323.00 L 322.00 317.00 L 337.00 302.00 L 347.00 289.00 L 358.00 268.00 L 365.00 247.00 L 368.00 229.00 L 368.00 202.00 L 364.00 181.00 L 360.00 170.00 L 355.00 160.00 L 348.00 150.00 L 335.00 137.00 Z M 305.00 171.00 L 312.00 176.00 L 320.00 185.00 L 325.00 195.00 L 328.00 208.00 L 328.00 224.00 L 325.00 238.00 L 317.00 255.00 L 309.00 266.00 L 299.00 276.00 L 288.00 284.00 L 273.00 291.00 L 258.00 294.00 L 250.00 294.00 L 241.00 292.00 L 233.00 288.00 L 224.00 280.00 L 220.00 274.00 L 216.00 262.00 L 216.00 243.00 L 222.00 222.00 L 229.00 209.00 L 240.00 194.00 L 248.00 186.00 L 261.00 176.00 L 273.00 170.00 L 284.00 167.00 L 293.00 167.00 Z M 835.00 117.00 L 833.00 116.00 L 828.00 116.00 L 825.00 118.00 L 819.00 127.00 L 815.00 137.00 L 807.00 171.00 L 804.00 193.00 L 800.00 213.00 L 793.00 235.00 L 785.00 249.00 L 776.00 258.00 L 768.00 262.00 L 763.00 263.00 L 753.00 263.00 L 740.00 258.00 L 737.00 256.00 L 724.00 242.00 L 721.00 237.00 L 714.00 219.00 L 708.00 192.00 L 704.00 165.00 L 700.00 147.00 L 696.00 135.00 L 694.00 132.00 L 688.00 127.00 L 682.00 127.00 L 678.00 130.00 L 674.00 137.00 L 672.00 143.00 L 668.00 168.00 L 668.00 208.00 L 669.00 217.00 L 674.00 240.00 L 677.00 248.00 L 688.00 268.00 L 699.00 280.00 L 713.00 290.00 L 721.00 294.00 L 735.00 299.00 L 748.00 302.00 L 771.00 303.00 L 785.00 301.00 L 797.00 297.00 L 809.00 290.00 L 820.00 279.00 L 825.00 272.00 L 833.00 256.00 L 836.00 247.00 L 842.00 222.00 L 845.00 197.00 L 846.00 182.00 L 845.00 146.00 L 843.00 132.00 L 841.00 125.00 L 839.00 121.00 Z M 1171.00 97.00 L 1162.00 97.00 L 1152.00 101.00 L 1143.00 111.00 L 1138.00 125.00 L 1138.00 142.00 L 1140.00 154.00 L 1146.00 177.00 L 1148.00 192.00 L 1148.00 221.00 L 1145.00 240.00 L 1141.00 256.00 L 1125.00 301.00 L 1123.00 317.00 L 1124.00 324.00 L 1128.00 332.00 L 1133.00 337.00 L 1140.00 340.00 L 1153.00 340.00 L 1159.00 337.00 L 1168.00 328.00 L 1173.00 320.00 L 1179.00 307.00 L 1188.00 281.00 L 1192.00 266.00 L 1197.00 238.00 L 1200.00 206.00 L 1200.00 170.00 L 1196.00 136.00 L 1192.00 121.00 L 1186.00 108.00 L 1178.00 100.00 Z M 1035.00 42.00 L 1028.00 41.00 L 1001.00 41.00 L 983.00 44.00 L 964.00 50.00 L 952.00 55.00 L 928.00 69.00 L 914.00 80.00 L 898.00 96.00 L 887.00 110.00 L 875.00 130.00 L 868.00 146.00 L 862.00 165.00 L 858.00 190.00 L 858.00 209.00 L 859.00 219.00 L 864.00 242.00 L 868.00 254.00 L 876.00 271.00 L 884.00 284.00 L 899.00 302.00 L 913.00 314.00 L 927.00 323.00 L 939.00 329.00 L 956.00 335.00 L 969.00 338.00 L 986.00 340.00 L 1009.00 339.00 L 1020.00 337.00 L 1037.00 332.00 L 1058.00 322.00 L 1076.00 309.00 L 1098.00 286.00 L 1108.00 271.00 L 1115.00 257.00 L 1121.00 240.00 L 1125.00 221.00 L 1125.00 200.00 L 1123.00 190.00 L 1117.00 176.00 L 1112.00 169.00 L 1100.00 159.00 L 1086.00 153.00 L 1070.00 150.00 L 1045.00 151.00 L 1022.00 156.00 L 1010.00 160.00 L 992.00 168.00 L 979.00 176.00 L 972.00 182.00 L 966.00 191.00 L 965.00 194.00 L 965.00 203.00 L 966.00 206.00 L 972.00 213.00 L 978.00 216.00 L 982.00 217.00 L 997.00 217.00 L 1027.00 210.00 L 1044.00 209.00 L 1053.00 212.00 L 1059.00 217.00 L 1062.00 223.00 L 1062.00 233.00 L 1059.00 241.00 L 1055.00 247.00 L 1046.00 256.00 L 1039.00 261.00 L 1025.00 268.00 L 1005.00 273.00 L 979.00 273.00 L 968.00 271.00 L 956.00 267.00 L 944.00 261.00 L 933.00 253.00 L 921.00 240.00 L 912.00 224.00 L 909.00 216.00 L 906.00 201.00 L 906.00 184.00 L 909.00 168.00 L 915.00 151.00 L 923.00 136.00 L 930.00 126.00 L 946.00 110.00 L 960.00 101.00 L 978.00 95.00 L 995.00 95.00 L 1001.00 96.00 L 1011.00 99.00 L 1027.00 106.00 L 1035.00 108.00 L 1052.00 108.00 L 1056.00 107.00 L 1067.00 101.00 L 1074.00 93.00 L 1078.00 82.00 L 1078.00 73.00 L 1077.00 69.00 L 1072.00 60.00 L 1063.00 52.00 L 1053.00 47.00 Z M 378.00 31.00 L 361.00 36.00 L 355.00 40.00 L 349.00 46.00 L 345.00 53.00 L 343.00 60.00 L 343.00 76.00 L 349.00 96.00 L 367.00 140.00 L 377.00 169.00 L 382.00 188.00 L 386.00 215.00 L 386.00 235.00 L 385.00 244.00 L 381.00 265.00 L 374.00 285.00 L 370.00 300.00 L 370.00 315.00 L 371.00 319.00 L 374.00 325.00 L 382.00 333.00 L 395.00 338.00 L 410.00 339.00 L 427.00 336.00 L 441.00 331.00 L 455.00 324.00 L 473.00 311.00 L 488.00 296.00 L 498.00 283.00 L 513.00 255.00 L 522.00 226.00 L 525.00 206.00 L 525.00 172.00 L 519.00 141.00 L 512.00 121.00 L 503.00 103.00 L 494.00 89.00 L 487.00 80.00 L 472.00 65.00 L 453.00 51.00 L 429.00 39.00 L 417.00 35.00 L 395.00 31.00 Z M 422.00 88.00 L 431.00 88.00 L 440.00 91.00 L 448.00 96.00 L 455.00 102.00 L 467.00 117.00 L 472.00 126.00 L 479.00 143.00 L 482.00 154.00 L 485.00 176.00 L 485.00 191.00 L 483.00 207.00 L 480.00 219.00 L 475.00 232.00 L 470.00 240.00 L 464.00 246.00 L 458.00 249.00 L 451.00 249.00 L 445.00 246.00 L 439.00 240.00 L 434.00 231.00 L 422.00 197.00 L 419.00 184.00 L 414.00 171.00 L 405.00 139.00 L 403.00 129.00 L 403.00 108.00 L 404.00 104.00 L 407.00 98.00 L 413.00 92.00 L 418.00 89.00 Z M 1167.00 29.00 L 1158.00 32.00 L 1149.00 40.00 L 1145.00 48.00 L 1144.00 59.00 L 1148.00 70.00 L 1155.00 77.00 L 1164.00 81.00 L 1176.00 81.00 L 1182.00 79.00 L 1188.00 75.00 L 1193.00 69.00 L 1196.00 62.00 L 1196.00 48.00 L 1193.00 41.00 L 1187.00 34.00 L 1179.00 30.00 Z M 553.00 44.00 L 542.00 55.00 L 536.00 64.00 L 532.00 74.00 L 530.00 83.00 L 530.00 108.00 L 537.00 150.00 L 540.00 179.00 L 540.00 234.00 L 535.00 279.00 L 530.00 306.00 L 530.00 323.00 L 534.00 333.00 L 540.00 338.00 L 543.00 339.00 L 551.00 339.00 L 558.00 336.00 L 566.00 328.00 L 570.00 322.00 L 575.00 311.00 L 580.00 292.00 L 583.00 270.00 L 583.00 258.00 L 585.00 245.00 L 588.00 246.00 L 594.00 258.00 L 613.00 288.00 L 622.00 300.00 L 638.00 318.00 L 660.00 337.00 L 675.00 347.00 L 699.00 359.00 L 716.00 365.00 L 734.00 369.00 L 753.00 370.00 L 754.00 371.00 L 778.00 370.00 L 795.00 367.00 L 816.00 360.00 L 831.00 352.00 L 839.00 346.00 L 851.00 334.00 L 858.00 322.00 L 859.00 313.00 L 858.00 310.00 L 854.00 306.00 L 851.00 305.00 L 844.00 305.00 L 816.00 317.00 L 789.00 324.00 L 781.00 325.00 L 755.00 325.00 L 741.00 323.00 L 722.00 318.00 L 712.00 314.00 L 691.00 303.00 L 676.00 292.00 L 651.00 268.00 L 631.00 243.00 L 610.00 212.00 L 602.00 197.00 L 601.00 187.00 L 604.00 179.00 L 613.00 170.00 L 625.00 163.00 L 636.00 155.00 L 651.00 140.00 L 661.00 125.00 L 667.00 109.00 L 669.00 97.00 L 669.00 87.00 L 665.00 68.00 L 658.00 55.00 L 646.00 42.00 L 631.00 33.00 L 613.00 28.00 L 591.00 28.00 L 585.00 29.00 L 572.00 33.00 L 562.00 38.00 Z M 616.00 62.00 L 624.00 67.00 L 629.00 72.00 L 634.00 81.00 L 636.00 88.00 L 636.00 102.00 L 633.00 112.00 L 626.00 125.00 L 622.00 130.00 L 610.00 141.00 L 601.00 147.00 L 592.00 151.00 L 582.00 152.00 L 578.00 150.00 L 575.00 145.00 L 569.00 118.00 L 567.00 101.00 L 569.00 85.00 L 572.00 78.00 L 576.00 72.00 L 581.00 67.00 L 592.00 61.00 L 596.00 60.00 L 610.00 60.00 Z M 177.00 21.00 L 158.00 18.00 L 142.00 18.00 L 126.00 20.00 L 105.00 26.00 L 81.00 38.00 L 59.00 55.00 L 45.00 71.00 L 36.00 85.00 L 30.00 97.00 L 23.00 117.00 L 20.00 131.00 L 18.00 147.00 L 18.00 180.00 L 22.00 213.00 L 30.00 250.00 L 43.00 290.00 L 56.00 320.00 L 68.00 339.00 L 78.00 348.00 L 85.00 351.00 L 99.00 351.00 L 106.00 348.00 L 110.00 345.00 L 114.00 340.00 L 118.00 331.00 L 119.00 327.00 L 119.00 311.00 L 116.00 294.00 L 113.00 284.00 L 110.00 264.00 L 110.00 245.00 L 111.00 239.00 L 117.00 223.00 L 125.00 212.00 L 136.00 202.00 L 173.00 178.00 L 196.00 160.00 L 213.00 142.00 L 223.00 127.00 L 231.00 109.00 L 234.00 96.00 L 234.00 79.00 L 231.00 66.00 L 224.00 52.00 L 210.00 37.00 L 203.00 32.00 L 189.00 25.00 Z M 173.00 64.00 L 182.00 74.00 L 185.00 80.00 L 187.00 89.00 L 187.00 99.00 L 183.00 113.00 L 173.00 130.00 L 156.00 147.00 L 145.00 155.00 L 132.00 162.00 L 115.00 167.00 L 99.00 167.00 L 91.00 163.00 L 86.00 158.00 L 82.00 151.00 L 80.00 144.00 L 79.00 131.00 L 81.00 117.00 L 85.00 105.00 L 92.00 92.00 L 98.00 84.00 L 115.00 68.00 L 135.00 58.00 L 145.00 56.00 L 153.00 56.00 L 165.00 59.00 Z" fill="#1B1B1B"/>
    <path d="M 694.00 39.00 L 688.00 45.00 L 684.00 54.00 L 684.00 70.00 L 686.00 80.00 L 691.00 95.00 L 705.00 124.00 L 719.00 144.00 L 737.00 161.00 L 743.00 164.00 L 751.00 166.00 L 761.00 165.00 L 770.00 161.00 L 780.00 153.00 L 790.00 142.00 L 792.00 138.00 L 796.00 134.00 L 802.00 125.00 L 813.00 105.00 L 820.00 88.00 L 825.00 70.00 L 825.00 54.00 L 823.00 48.00 L 816.00 40.00 L 810.00 37.00 L 797.00 37.00 L 786.00 42.00 L 773.00 54.00 L 764.00 67.00 L 756.00 84.00 L 753.00 85.00 L 749.00 80.00 L 744.00 69.00 L 736.00 57.00 L 724.00 44.00 L 720.00 41.00 L 711.00 37.00 L 699.00 37.00 Z" fill="#FC809F"/>
  </g>
</svg>
